<svg xmlns="http://www.w3.org/2000/svg" width="56" height="56" viewBox="0 0 56 56" role="img" aria-label="Linear"><!-- Linear logo, trademark of its owner. Source: Simple Icons 16.32.0, slug linear, #5E6AD2. --><title>Linear</title><rect x="0.5" y="0.5" width="55" height="55" rx="12" fill="#FFFFFF" stroke="#D0D7DE"/><svg x="12" y="12" width="32" height="32" viewBox="0 0 24 24" fill="#5E6AD2" color="#5E6AD2"><path d="M2.886 4.18A11.982 11.982 0 0 1 11.99 0C18.624 0 24 5.376 24 12.009c0 3.64-1.62 6.903-4.18 9.105L2.887 4.18ZM1.817 5.626l16.556 16.556c-.524.33-1.075.62-1.65.866L.951 7.277c.247-.575.537-1.126.866-1.65ZM.322 9.163l14.515 14.515c-.71.172-1.443.282-2.195.322L0 11.358a12 12 0 0 1 .322-2.195Zm-.17 4.862 9.823 9.824a12.02 12.02 0 0 1-9.824-9.824Z"/></svg></svg>
